<svg aria-hidden="true" style="position: absolute; width: 0; height: 0; overflow: hidden;" version="1.1" xmlns="http://www.w3.org/2000/svg" xmlns:xlink="http://www.w3.org/1999/xlink">
<defs>
<symbol id="icon-builder-1" viewBox="0 0 34 32">
<path d="M0 0h34.233v31.53h-34.233v-31.53z"></path>
</symbol>
<symbol id="icon-call" viewBox="0 0 32 32">
<path fill="none" stroke="#fff" style="stroke: var(--color1, #fff)" stroke-linejoin="round" stroke-linecap="round" stroke-miterlimit="4" stroke-width="1.4545" d="M19.473 7.015c1.36 0.265 2.61 0.929 3.591 1.907s1.645 2.226 1.911 3.584l-5.501-5.491zM19.473 1.455c2.826 0.313 5.462 1.577 7.474 3.582s3.281 4.634 3.598 7.455l-11.072-11.037zM29.153 23.584v4.17c0.002 0.387-0.078 0.77-0.233 1.125s-0.383 0.673-0.669 0.935-0.623 0.461-0.991 0.585c-0.367 0.124-0.757 0.17-1.143 0.135-4.286-0.465-8.402-1.926-12.019-4.267-3.365-2.134-6.218-4.982-8.356-8.34-2.354-3.626-3.818-7.755-4.276-12.052-0.035-0.384 0.011-0.772 0.134-1.138s0.322-0.702 0.583-0.987c0.261-0.285 0.578-0.513 0.932-0.669s0.736-0.237 1.123-0.237h4.178c0.676-0.007 1.331 0.232 1.844 0.672s0.847 1.051 0.942 1.719c0.176 1.335 0.503 2.645 0.975 3.906 0.187 0.498 0.228 1.038 0.117 1.558s-0.369 0.997-0.744 1.375l-1.769 1.765c1.983 3.48 4.869 6.361 8.356 8.34l1.769-1.765c0.379-0.374 0.857-0.631 1.378-0.742s1.063-0.070 1.561 0.117c1.264 0.471 2.576 0.797 3.913 0.973 0.677 0.095 1.294 0.435 1.736 0.956s0.676 1.184 0.659 1.866z"></path>
</symbol>
<symbol id="icon-Group-72" viewBox="0 0 32 32">
<path fill="#6cac3d" style="fill: var(--color2, #6cac3d)" d="M29.867 5.6c0 3.093-2.388 5.6-5.333 5.6s-5.333-2.507-5.333-5.6c0-3.093 2.388-5.6 5.333-5.6s5.333 2.507 5.333 5.6z"></path>
<path fill="#000" style="fill: var(--color3, #000)" d="M0 0h32v32h-32v-32z"></path>
</symbol>
<symbol id="icon-Group-73" viewBox="0 0 32 32">
<path fill="#6cac3d" style="fill: var(--color2, #6cac3d)" d="M21.333 26.4c0 3.093-2.388 5.6-5.333 5.6s-5.333-2.507-5.333-5.6c0-3.093 2.388-5.6 5.333-5.6s5.333 2.507 5.333 5.6z"></path>
<path fill="#000" style="fill: var(--color3, #000)" d="M0 0h32v32h-32v-32z"></path>
</symbol>
<symbol id="icon-Group-74" viewBox="0 0 30 32">
<path fill="#6cac3d" style="fill: var(--color2, #6cac3d)" d="M20 26.75c0 2.899-2.239 5.25-5 5.25s-5-2.351-5-5.25c0-2.899 2.239-5.25 5-5.25s5 2.351 5 5.25z"></path>
<path fill="#000" style="fill: var(--color3, #000)" d="M0 0h30v30h-30v-30z"></path>
</symbol>
<symbol id="icon-Group-76" viewBox="0 0 32 32">
<path fill="#6cac3d" style="fill: var(--color2, #6cac3d)" d="M26.667 21.067c0 3.093-2.388 5.6-5.333 5.6s-5.333-2.507-5.333-5.6c0-3.093 2.388-5.6 5.333-5.6s5.333 2.507 5.333 5.6z"></path>
<path fill="#000" style="fill: var(--color3, #000)" d="M0 0h32v32h-32v-32z"></path>
</symbol>
<symbol id="icon-Group-85" viewBox="0 0 32 32">
<path fill="#6cac3d" style="fill: var(--color2, #6cac3d)" d="M23.678 15.365c0 4.242-3.438 7.68-7.68 7.68s-7.68-3.438-7.68-7.68c0-4.242 3.438-7.68 7.68-7.68s7.68 3.438 7.68 7.68z"></path>
<path fill="#000" style="fill: var(--color3, #000)" d="M0 0.003h32v32h-32v-32z"></path>
</symbol>
<symbol id="icon-Group-86" viewBox="0 0 32 32">
<path fill="#6cac3d" style="fill: var(--color2, #6cac3d)" d="M16.001 25.146c0 3.030-2.456 5.486-5.486 5.486s-5.486-2.456-5.486-5.486c0-3.030 2.456-5.486 5.486-5.486s5.486 2.456 5.486 5.486z"></path>
<path fill="#000" style="fill: var(--color3, #000)" d="M0 0.003h32v32h-32v-32z"></path>
</symbol>
<symbol id="icon-Group-88" viewBox="0 0 32 32">
<path fill="#6cac3d" style="fill: var(--color2, #6cac3d)" d="M26.971 21.026c0 3.030-2.456 5.486-5.486 5.486s-5.486-2.456-5.486-5.486c0-3.030 2.456-5.486 5.486-5.486s5.486 2.456 5.486 5.486z"></path>
<path fill="#000" style="fill: var(--color3, #000)" d="M0 0h32v32h-32v-32z"></path>
</symbol>
<symbol id="icon-Group-90" viewBox="0 0 32 32">
<path fill="#6cac3d" style="fill: var(--color2, #6cac3d)" d="M20.114 26.518c0 3.030-2.456 5.486-5.486 5.486s-5.486-2.456-5.486-5.486c0-3.030 2.456-5.486 5.486-5.486s5.486 2.456 5.486 5.486z"></path>
<path fill="#000" style="fill: var(--color3, #000)" d="M0 0.003h32v32h-32v-32z"></path>
</symbol>
<symbol id="icon-Group-91" viewBox="0 0 32 32">
<path fill="#6cac3d" style="fill: var(--color2, #6cac3d)" d="M21.942 6.861c0 3.030-2.456 5.486-5.486 5.486s-5.486-2.456-5.486-5.486c0-3.030 2.456-5.486 5.486-5.486s5.486 2.456 5.486 5.486z"></path>
<path fill="#000" style="fill: var(--color3, #000)" d="M0 0.003h32v32h-32v-32z"></path>
</symbol>
<symbol id="icon-Group-11218" viewBox="0 0 32 32">
<path fill="#6cac3d" style="fill: var(--color2, #6cac3d)" d="M20.87 20.87c0 2.689-2.18 4.87-4.87 4.87s-4.87-2.18-4.87-4.87c0-2.689 2.18-4.87 4.87-4.87s4.87 2.18 4.87 4.87z"></path>
<path fill="#000" style="fill: var(--color3, #000)" d="M0 0h32v32h-32v-32z"></path>
</symbol>
<symbol id="icon-Group-11231-1" viewBox="0 0 32 32">
<path fill="#6cac3d" style="fill: var(--color2, #6cac3d)" d="M12.444 23.999c0 3.436-2.786 6.222-6.222 6.222s-6.222-2.786-6.222-6.222c0-3.436 2.786-6.222 6.222-6.222s6.222 2.786 6.222 6.222z"></path>
<path fill="#000" style="fill: var(--color3, #000)" d="M0 0h32v32h-32v-32z"></path>
</symbol>
<symbol id="icon-Group-11231" viewBox="0 0 32 32">
<path fill="#6cac3d" style="fill: var(--color2, #6cac3d)" d="M20.267 19.2c0 2.356-1.91 4.267-4.267 4.267s-4.267-1.91-4.267-4.267c0-2.356 1.91-4.267 4.267-4.267s4.267 1.91 4.267 4.267z"></path>
<path fill="#000" style="fill: var(--color3, #000)" d="M0 0h32v32h-32v-32z"></path>
</symbol>
<symbol id="icon-Group-11232" viewBox="0 0 32 32">
<path fill="#6cac3d" style="fill: var(--color2, #6cac3d)" d="M16 27.2c0 2.651-2.149 4.8-4.8 4.8s-4.8-2.149-4.8-4.8c0-2.651 2.149-4.8 4.8-4.8s4.8 2.149 4.8 4.8z"></path>
<path fill="#000" style="fill: var(--color3, #000)" d="M0 0h32v32h-32v-32z"></path>
</symbol>
<symbol id="icon-MaxProff" viewBox="0 0 180 32">
<path fill="#2d4872" style="fill: var(--color4, #2d4872)" d="M1.193 3.747v-1.222h7.494l11.729 24.925-1.344 3.095h-5.295l-12.585-26.799zM24.204 18.775h-0.163l-2.729 6.598-3.503-7.494 6.394-15.354h7.738v28.020h-7.738v-11.77zM1.193 7.779l7.494 15.965v6.801h-7.494v-22.767z"></path>
<path fill="#171616" style="fill: var(--color5, #171616)" d="M47.531 17.676c0-0.706-0.027-1.208-0.081-1.507s-0.217-0.516-0.489-0.652c-0.244-0.136-0.706-0.231-1.385-0.285-0.407-0.027-1.29-0.041-2.647-0.041-1.303 0-2.511 0.054-3.625 0.163l-2.159 0.122v-5.295c2.552-0.489 5.308-0.733 8.268-0.733 2.281 0 4.059 0.163 5.335 0.489 1.303 0.326 2.281 0.842 2.932 1.548 0.57 0.652 0.937 1.48 1.1 2.484 0.19 1.005 0.285 2.403 0.285 4.195v12.381h-7.535v-12.87zM41.503 30.831c-1.873 0-3.258-0.516-4.154-1.548-0.896-1.059-1.344-2.647-1.344-4.765 0-1.303 0.095-2.349 0.285-3.136 0.19-0.815 0.516-1.453 0.977-1.914 0.462-0.489 1.1-0.828 1.914-1.018 0.815-0.217 1.887-0.326 3.217-0.326l3.421 0.081v3.625h-0.407c-0.624 0-1.032 0.014-1.222 0.041-0.543 0.027-0.828 0.285-0.855 0.774-0.027 0.163-0.041 0.502-0.041 1.018 0 0.407 0.014 0.72 0.041 0.937 0.054 0.217 0.136 0.394 0.244 0.529 0.136 0.19 0.34 0.299 0.611 0.326 0.38 0.054 0.788 0.081 1.222 0.081h0.407v4.154c-0.597 0.462-1.235 0.76-1.914 0.896-0.652 0.163-1.453 0.244-2.403 0.244zM57.819 9.775h8.227l14.010 20.771h-8.227l-14.010-20.771zM70.322 13.033l1.711-3.258h7.738l-5.58 9.001-3.869-5.743zM63.399 21.137l3.869 5.743-1.955 3.665h-7.738l5.824-9.408zM118.175 10.956c0.57-0.543 1.235-0.923 1.996-1.14 0.787-0.244 1.751-0.367 2.892-0.367v6.801c-1.222 0-2.226 0.081-3.014 0.244-0.76 0.163-1.385 0.448-1.873 0.855v-6.394zM108.929 9.775h7.535v20.771h-7.535v-20.771zM137.639 20.201c0-1.385-0.014-2.308-0.041-2.769-0.027-0.652-0.109-1.14-0.244-1.466-0.136-0.353-0.353-0.57-0.652-0.652-0.326-0.081-0.774-0.122-1.344-0.122h-0.57v-5.743h0.57c2.362 0 4.208 0.19 5.539 0.57 1.33 0.353 2.321 0.95 2.973 1.792 0.597 0.76 0.977 1.778 1.14 3.055 0.19 1.249 0.285 3.027 0.285 5.335 0 2.145-0.068 3.815-0.204 5.009-0.109 1.168-0.394 2.131-0.855 2.892-0.516 0.842-1.29 1.48-2.321 1.914-1.032 0.407-2.457 0.665-4.276 0.774v-10.589zM135.358 30.871c-2.362 0-4.209-0.176-5.539-0.529s-2.321-0.95-2.973-1.792c-0.597-0.76-0.991-1.765-1.181-3.014-0.163-1.249-0.244-3.027-0.244-5.335 0-2.118 0.068-3.774 0.204-4.969s0.434-2.186 0.896-2.973c0.489-0.869 1.249-1.507 2.281-1.914 1.032-0.434 2.457-0.706 4.276-0.815v10.671c0 1.385 0.014 2.294 0.041 2.729 0.027 0.652 0.108 1.14 0.244 1.466s0.367 0.529 0.692 0.611c0.271 0.081 0.706 0.122 1.303 0.122h0.57v5.743h-0.57zM174.793 6.557c-0.081 0.326-0.122 0.787-0.122 1.385v1.833h4.969v5.743h-31.889v-5.743h3.828v-0.448c0-2.308 0.163-4.059 0.489-5.254s0.924-2.064 1.792-2.607c0.815-0.516 1.942-0.842 3.38-0.977 1.44-0.136 3.721-0.204 6.842-0.204v5.213c-1.411 0-2.335 0.014-2.769 0.041-0.652 0.027-1.153 0.122-1.507 0.285-0.326 0.163-0.515 0.407-0.57 0.733-0.081 0.326-0.122 0.787-0.122 1.385v1.833h8.023v-0.448c0-2.308 0.163-4.059 0.489-5.254s0.924-2.064 1.792-2.607c0.815-0.516 1.942-0.842 3.38-0.977 1.44-0.136 3.721-0.204 6.842-0.204v5.213c-1.411 0-2.335 0.014-2.769 0.041-0.652 0.027-1.153 0.122-1.507 0.285-0.326 0.163-0.515 0.407-0.57 0.733zM151.578 17.146h7.535v13.399h-7.535v-13.399zM167.136 17.146h7.535v13.399h-7.535v-13.399z"></path>
<path fill="#6cac3d" style="fill: var(--color2, #6cac3d)" d="M83.005 2.525h8.145v28.020h-8.145v-28.020zM92.861 15.599h0.977c0.869 0 1.507-0.027 1.914-0.081 0.434-0.081 0.774-0.244 1.018-0.489 0.244-0.217 0.394-0.529 0.448-0.937 0.081-0.434 0.122-1.072 0.122-1.914s-0.041-1.466-0.122-1.873c-0.054-0.434-0.204-0.774-0.448-1.018-0.244-0.217-0.584-0.353-1.018-0.407-0.434-0.081-1.072-0.122-1.914-0.122h-0.977v-6.231h3.38c2.009 0 3.638 0.204 4.887 0.611 1.276 0.38 2.24 0.977 2.892 1.792 0.624 0.76 1.045 1.724 1.263 2.892 0.217 1.14 0.326 2.593 0.326 4.358 0 1.683-0.109 3.082-0.326 4.195-0.19 1.113-0.584 2.050-1.181 2.81-0.679 0.869-1.656 1.534-2.932 1.996-1.249 0.434-2.892 0.652-4.928 0.652h-3.38v-6.231z"></path>
</symbol>
<symbol id="icon-menuBtn" viewBox="0 0 56 32">
<path fill="#2d4872" style="fill: var(--color4, #2d4872)" d="M1.6 0h52.8c0.884 0 1.6 0.716 1.6 1.6v3.2c0 0.884-0.716 1.6-1.6 1.6h-52.8c-0.884 0-1.6-0.716-1.6-1.6v-3.2c0-0.884 0.716-1.6 1.6-1.6z"></path>
<path fill="#2d4872" style="fill: var(--color4, #2d4872)" d="M1.6 12.8h52.8c0.884 0 1.6 0.716 1.6 1.6v3.2c0 0.884-0.716 1.6-1.6 1.6h-52.8c-0.884 0-1.6-0.716-1.6-1.6v-3.2c0-0.884 0.716-1.6 1.6-1.6z"></path>
<path fill="#2d4872" style="fill: var(--color4, #2d4872)" d="M1.6 25.6h52.8c0.884 0 1.6 0.716 1.6 1.6v3.2c0 0.884-0.716 1.6-1.6 1.6h-52.8c-0.884 0-1.6-0.716-1.6-1.6v-3.2c0-0.884 0.716-1.6 1.6-1.6z"></path>
</symbol>
<symbol id="icon-official-documents-2" viewBox="0 0 32 32">
<path d="M0 0h32v32h-32v-32z"></path>
</symbol>
<symbol id="icon-Screen-Shot-2021-10-18-at-1114-1" viewBox="0 0 53 32">
<path d="M0 0h52.706v32h-52.706v-32z"></path>
</symbol>
<symbol id="icon-visa-logo-1" viewBox="0 0 33 32">
<path d="M0 0h33.455v32h-33.455v-32z"></path>
</symbol>
<symbol id="icon-wallet-3" viewBox="0 0 32 32">
<path fill="#fff" style="fill: var(--color1, #fff)" d="M30.474 18.743h-0.479v-4.313c0-0.683-0.34-1.287-0.859-1.655v-0.587c0-0.852-0.693-1.545-1.545-1.545h-0.358l1.368-2.008c0.459-0.673 0.284-1.593-0.389-2.052l-9.283-6.326c-0.326-0.222-0.719-0.304-1.107-0.231s-0.723 0.293-0.945 0.619l-8.013 11.758h-2.23l0.538-5.446c0.006-0.061 0.046-0.115 0.102-0.136 0.693-0.261 1.294-0.749 1.691-1.374 0.031-0.049 0.090-0.077 0.152-0.071l3.497 0.346c0.251 0.024 0.474-0.158 0.499-0.409s-0.158-0.474-0.409-0.499l-3.497-0.346c-0.406-0.040-0.793 0.147-1.011 0.489-0.292 0.459-0.734 0.818-1.243 1.010-0.384 0.145-0.647 0.489-0.687 0.899l-0.547 5.535h-0.581l0.851-8.613c0.031-0.31 0.307-0.538 0.618-0.507l7.067 0.698c0.251 0.024 0.474-0.158 0.499-0.409s-0.158-0.474-0.409-0.499l-7.067-0.698c-0.81-0.080-1.535 0.514-1.615 1.325l-0.686 6.942h-1.168c-0.852 0-1.545 0.693-1.545 1.545v0.401c-0.697 0.321-1.182 1.025-1.182 1.842v15.543c0 1.117 0.909 2.027 2.027 2.027h25.442c1.118 0 2.027-0.909 2.027-2.027v-4.313h0.479c0.565 0 1.025-0.46 1.025-1.025v-4.867c0-0.565-0.46-1.025-1.025-1.025zM27.591 11.555c0.349-0 0.633 0.284 0.633 0.633v0.232c-0.084-0.011-0.169-0.017-0.256-0.017h-1.935l0.578-0.849h0.979zM17.631 1.159c0.085-0.125 0.213-0.209 0.362-0.237 0.035-0.007 0.071-0.010 0.106-0.010 0.112 0 0.222 0.034 0.317 0.098l9.283 6.326c0.257 0.175 0.324 0.528 0.149 0.785l-2.918 4.282h-0.7l1.431-2.099c0.232-0.34 0.251-0.774 0.050-1.131-0.268-0.474-0.376-1.033-0.305-1.573 0.052-0.402-0.124-0.794-0.461-1.023l-4.812-3.28c-0.337-0.23-0.767-0.251-1.121-0.055-0.477 0.263-1.036 0.366-1.575 0.291-0.4-0.056-0.806 0.124-1.034 0.46l-5.731 8.41h-0.7l7.663-11.244zM17.832 8.902c-1.986 0-3.616 1.548-3.748 3.501h-2.311l5.381-7.896c0 0 0 0 0 0 0.031-0.045 0.081-0.072 0.133-0.072 0.007 0 0.014 0 0.021 0.001 0.734 0.103 1.495-0.038 2.143-0.396 0.051-0.028 0.116-0.024 0.167 0.010l4.812 3.28c0.050 0.034 0.078 0.094 0.071 0.152-0.096 0.734 0.052 1.494 0.415 2.139 0.029 0.052 0.026 0.118-0.009 0.169l-1.78 2.613h-1.546c-0.133-1.953-1.763-3.501-3.749-3.501zM20.666 12.403h-5.668c0.131-1.449 1.351-2.589 2.834-2.589s2.704 1.14 2.834 2.589zM2.594 12.188c0-0.349 0.284-0.633 0.633-0.633h1.078l-0.084 0.849h-1.627v-0.216zM1.412 14.43c0-0.615 0.5-1.115 1.115-1.115h25.442c0.615 0 1.115 0.5 1.115 1.115v1.265h-27.671v-1.265zM29.083 29.973c0 0.615-0.5 1.115-1.115 1.115h-25.442c-0.615 0-1.115-0.5-1.115-1.115v-1.265h2.459c0.252 0 0.456-0.204 0.456-0.456s-0.204-0.456-0.456-0.456h-2.459v-11.189h27.671v2.136h-4.336c-1.366 0-2.549 0.796-3.111 1.949-0.002 0.004-0.004 0.008-0.006 0.011-0.005 0.010-0.009 0.020-0.014 0.030-0.067 0.142-0.125 0.289-0.172 0.441-0 0-0 0.001-0 0.001-0.101 0.324-0.155 0.669-0.155 1.026 0 1.907 1.551 3.458 3.458 3.458v0h4.335v2.136h-22.293c-0.252 0-0.456 0.204-0.456 0.456s0.204 0.456 0.456 0.456h22.293v1.265zM30.587 24.635c0 0.062-0.051 0.113-0.113 0.113h-5.726c-0.965 0-1.807-0.54-2.239-1.334-0.020-0.036-0.038-0.073-0.056-0.11-0.036-0.074-0.068-0.15-0.097-0.228-0.1-0.273-0.155-0.567-0.155-0.875s0.055-0.602 0.155-0.875c0.029-0.078 0.061-0.154 0.097-0.228 0.018-0.037 0.037-0.074 0.056-0.11 0.432-0.794 1.273-1.334 2.239-1.334h5.726c0.062 0 0.113 0.051 0.113 0.113v4.867z"></path>
<path fill="#fff" style="fill: var(--color1, #fff)" d="M24.855 20.352c-1.020 0-1.85 0.83-1.85 1.85s0.83 1.85 1.85 1.85c1.020 0 1.85-0.83 1.85-1.85s-0.83-1.85-1.85-1.85zM24.855 23.14c-0.517 0-0.938-0.421-0.938-0.938s0.421-0.938 0.938-0.938c0.517 0 0.938 0.421 0.938 0.938s-0.421 0.938-0.938 0.938z"></path>
</symbol>
<symbol id="icon-builder-11" viewBox="0 0 34 32">
<path d="M0 0h34.233v31.53h-34.233v-31.53z"></path>
</symbol>
</defs>
</svg>
